# xmcd
#
# Track frame offsets:
#	150
#	21005
#	48160
#	68447
#	103957
#	123470
#	153645
#	195370
#	227715
#	261000
#
# Disc length: 4323 seconds
#
# Revision: 2
# Processed by: cddbd v1.5.1PL0 Copyright (c) Steve Scherf et al.
# Submitted via: EasyCDDAExtractor 7.0.9.1
#
DISCID=7c10e10a
DTITLE=Eric Clapton - One More Car, One More Rider - Disc 2
DYEAR=2002
DGENRE=Blues
TTITLE0=I Want a Little Girl
TTITLE1=Badge
TTITLE2=Hoochie Coochie Man
TTITLE3=Have You Ever Loved a Woman
TTITLE4=Cocaine
TTITLE5=Wonderful Tonight
TTITLE6=Layla
TTITLE7=Sunshine of Your Love
TTITLE8=Ovet the Rainbow
TTITLE9=Data
EXTD=
EXTT0=
EXTT1=
EXTT2=
EXTT3=
EXTT4=
EXTT5=
EXTT6=
EXTT7=
EXTT8=
EXTT9=
PLAYORDER=
